<svg width="50" height="50" viewBox="0 0 50 50" fill="none" xmlns="http://www.w3.org/2000/svg">
<path d="M36.9721 10.035L39.9665 13.0272L45.1777 18.2419L47.1943 16.2221L49.9999 13.4189L36.5832 0L33.7804 2.80324L31.761 4.82302L36.9721 10.035Z" fill="white"/>
<path d="M42.3167 19.8641L36.225 13.7714L33.7306 11.2765L30.1333 7.67871L11.8083 14.7521L2.90278 35.3944L0 42.0844L2.20278 44.2876L2.98611 45.071L10.9278 37.1281C13.8278 34.2109 14.3444 31.566 14.3472 31.5605C14.5056 30.7742 14.5528 29.9769 14.7028 29.1878C14.7528 28.9156 14.8139 28.6461 14.8806 28.3766C14.9139 28.246 14.9417 28.1127 14.9833 27.9849C15.0083 27.9071 15.0417 27.7265 15.1 27.6682C15.1139 27.6543 15.1194 27.6348 15.1194 27.6209C15.1444 27.5542 15.1722 27.4903 15.2056 27.4292C15.2639 27.3042 15.2972 27.2459 15.2972 27.2459C15.5472 26.7569 15.8778 26.3096 16.2861 25.9012C18.4472 23.7397 21.9417 23.7397 24.1028 25.9012C26.2639 28.0627 26.2639 31.5577 24.1028 33.7192C23.6945 34.1276 23.2444 34.4582 22.7583 34.7082C22.7583 34.7082 22.7 34.7415 22.575 34.7999C22.5167 34.8332 22.45 34.8582 22.3833 34.886C22.3694 34.886 22.35 34.8916 22.3361 34.9055C22.2778 34.9638 22.1 34.9972 22.0194 35.0222C21.8917 35.0638 21.7583 35.0944 21.6278 35.1249C21.3583 35.1916 21.0889 35.25 20.8167 35.3028C20.0278 35.4528 19.2306 35.5 18.4444 35.6584C18.4389 35.6584 15.7944 36.1779 12.8778 39.0784L4.93611 47.0214L5.71944 47.8048L5.71389 47.8104L7.91667 49.9996L14.6194 47.1131L35.2583 38.1921L42.3167 19.8641Z" fill="white"/>
</svg>
